<svg width="14" height="15" viewBox="0 0 14 15" fill="none" xmlns="http://www.w3.org/2000/svg">
<path d="M10.125 13.3928V14.25M10.125 13.3928C9.76682 13.3941 9.41373 13.3079 9.09648 13.1416C8.77923 12.9754 8.50743 12.7341 8.30475 12.4387M10.125 13.3928C10.4832 13.3941 10.8363 13.3079 11.1535 13.1416C11.4708 12.9754 11.7426 12.7341 11.9453 12.4387M8.30475 12.4387L7.5 12.9637M8.30475 12.4387C8.0645 12.0889 7.9359 11.6744 7.9359 11.25C7.9359 10.8256 8.0645 10.4111 8.30475 10.0612M11.9453 12.4387L12.75 12.9637M11.9453 12.4387C12.1855 12.0889 12.3141 11.6744 12.3141 11.25C12.3141 10.8256 12.1855 10.4111 11.9453 10.0612M10.125 9.10725C10.4832 9.10588 10.8363 9.19208 11.1535 9.35835C11.4708 9.52463 11.7426 9.76593 11.9453 10.0612M10.125 9.10725C9.76682 9.10588 9.41373 9.19208 9.09648 9.35835C8.77923 9.52463 8.50743 9.76593 8.30475 10.0612M10.125 9.10725V8.25M11.9453 10.0612L12.75 9.5355M8.30475 10.0612L7.5 9.53625M0.75 0.75H12.75M0.75 5.25H12.75M0.75 9.75H4.5" stroke="#848484" stroke-width="1.5" stroke-linecap="round"/>
</svg>
